<svg width="462" height="69" viewBox="0 0 462 69" fill="none" xmlns="http://www.w3.org/2000/svg">
<path d="M7.33887 34.5176V54H0.776367V4.23438H19.1309C24.5768 4.23438 28.8379 5.62435 31.9141 8.4043C35.013 11.1842 36.5625 14.8643 36.5625 19.4443C36.5625 24.2751 35.0472 28.0007 32.0166 30.6211C29.0088 33.2188 24.6908 34.5176 19.0625 34.5176H7.33887ZM7.33887 29.1514H19.1309C22.64 29.1514 25.3288 28.3311 27.1973 26.6904C29.0658 25.027 30 22.6344 30 19.5127C30 16.5505 29.0658 14.1807 27.1973 12.4033C25.3288 10.626 22.7653 9.70312 19.5068 9.63477H7.33887V29.1514ZM58.8135 54.6836C53.8005 54.6836 49.7217 53.043 46.5771 49.7617C43.4326 46.4577 41.8604 42.0485 41.8604 36.5342V35.3721C41.8604 31.7035 42.5553 28.4336 43.9453 25.5625C45.3581 22.6686 47.3177 20.4128 49.8242 18.7949C52.3535 17.1543 55.0879 16.334 58.0273 16.334C62.8353 16.334 66.5723 17.9176 69.2383 21.085C71.9043 24.2523 73.2373 28.7868 73.2373 34.6885V37.3203H48.1836C48.2747 40.9661 49.3343 43.917 51.3623 46.1729C53.4131 48.4059 56.0107 49.5225 59.1553 49.5225C61.3883 49.5225 63.2796 49.0667 64.8291 48.1553C66.3786 47.2438 67.7344 46.0361 68.8965 44.5322L72.7588 47.54C69.6598 52.3024 65.0114 54.6836 58.8135 54.6836ZM58.0273 21.5293C55.4753 21.5293 53.3333 22.4635 51.6016 24.332C49.8698 26.1777 48.7988 28.7754 48.3887 32.125H66.9141V31.6465C66.7318 28.4336 65.8659 25.9499 64.3164 24.1953C62.7669 22.418 60.6706 21.5293 58.0273 21.5293ZM86.5674 17.0176L86.7725 21.666C89.598 18.1113 93.2894 16.334 97.8467 16.334C105.662 16.334 109.604 20.7432 109.673 29.5615V54H103.35V29.5273C103.327 26.8613 102.712 24.8903 101.504 23.6143C100.319 22.3382 98.4619 21.7002 95.9326 21.7002C93.8818 21.7002 92.0817 22.2471 90.5322 23.3408C88.9827 24.4346 87.7751 25.8701 86.9092 27.6475V54H80.5859V17.0176H86.5674ZM125.19 17.0176L125.396 21.666C128.221 18.1113 131.912 16.334 136.47 16.334C144.285 16.334 148.228 20.7432 148.296 29.5615V54H141.973V29.5273C141.95 26.8613 141.335 24.8903 140.127 23.6143C138.942 22.3382 137.085 21.7002 134.556 21.7002C132.505 21.7002 130.705 22.2471 129.155 23.3408C127.606 24.4346 126.398 25.8701 125.532 27.6475V54H119.209V17.0176H125.19ZM169.932 44.7373L178.545 17.0176H185.312L170.444 59.708C168.143 65.8604 164.486 68.9365 159.473 68.9365L158.276 68.834L155.918 68.3896V63.2627L157.627 63.3994C159.769 63.3994 161.432 62.9665 162.617 62.1006C163.825 61.2347 164.816 59.651 165.591 57.3496L166.992 53.5898L153.799 17.0176H160.703L169.932 44.7373ZM209.341 54V4.23438H223.389C227.718 4.23438 231.546 5.19141 234.873 7.10547C238.2 9.01953 240.763 11.7425 242.563 15.2744C244.386 18.8063 245.309 22.8623 245.332 27.4424V30.6211C245.332 35.3151 244.421 39.4281 242.598 42.96C240.798 46.4919 238.211 49.2035 234.839 51.0947C231.489 52.986 227.581 53.9544 223.115 54H209.341ZM215.903 9.63477V48.6338H222.808C227.866 48.6338 231.797 47.0615 234.6 43.917C237.425 40.7725 238.838 36.2949 238.838 30.4844V27.5791C238.838 21.9281 237.505 17.5417 234.839 14.4199C232.196 11.2754 228.436 9.68034 223.56 9.63477H215.903ZM272.163 22.6914C271.206 22.5319 270.169 22.4521 269.053 22.4521C264.906 22.4521 262.091 24.2181 260.61 27.75V54H254.287V17.0176H260.439L260.542 21.29C262.616 17.986 265.555 16.334 269.36 16.334C270.591 16.334 271.525 16.4935 272.163 16.8125V22.6914ZM292.671 54.6836C287.658 54.6836 283.579 53.043 280.435 49.7617C277.29 46.4577 275.718 42.0485 275.718 36.5342V35.3721C275.718 31.7035 276.413 28.4336 277.803 25.5625C279.215 22.6686 281.175 20.4128 283.682 18.7949C286.211 17.1543 288.945 16.334 291.885 16.334C296.693 16.334 300.43 17.9176 303.096 21.085C305.762 24.2523 307.095 28.7868 307.095 34.6885V37.3203H282.041C282.132 40.9661 283.192 43.917 285.22 46.1729C287.271 48.4059 289.868 49.5225 293.013 49.5225C295.246 49.5225 297.137 49.0667 298.687 48.1553C300.236 47.2438 301.592 46.0361 302.754 44.5322L306.616 47.54C303.517 52.3024 298.869 54.6836 292.671 54.6836ZM291.885 21.5293C289.333 21.5293 287.191 22.4635 285.459 24.332C283.727 26.1777 282.656 28.7754 282.246 32.125H300.771V31.6465C300.589 28.4336 299.723 25.9499 298.174 24.1953C296.624 22.418 294.528 21.5293 291.885 21.5293ZM337.275 54C336.911 53.2708 336.615 51.972 336.387 50.1035C333.447 53.1569 329.938 54.6836 325.859 54.6836C322.214 54.6836 319.217 53.6582 316.87 51.6074C314.546 49.5339 313.384 46.9134 313.384 43.7461C313.384 39.8952 314.842 36.9102 317.759 34.791C320.698 32.6491 324.823 31.5781 330.132 31.5781H336.284V28.6729C336.284 26.4626 335.623 24.708 334.302 23.4092C332.98 22.0876 331.032 21.4268 328.457 21.4268C326.201 21.4268 324.31 21.9964 322.783 23.1357C321.257 24.2751 320.493 25.6536 320.493 27.2715H314.136C314.136 25.4258 314.785 23.6484 316.084 21.9395C317.406 20.2077 319.183 18.8405 321.416 17.8379C323.672 16.8353 326.144 16.334 328.833 16.334C333.094 16.334 336.432 17.4049 338.848 19.5469C341.263 21.666 342.516 24.5941 342.607 28.3311V45.3525C342.607 48.7477 343.04 51.4479 343.906 53.4531V54H337.275ZM326.782 49.1807C328.765 49.1807 330.645 48.668 332.422 47.6426C334.199 46.6172 335.487 45.2842 336.284 43.6436V36.0557H331.328C323.581 36.0557 319.707 38.3229 319.707 42.8574C319.707 44.8398 320.368 46.3893 321.689 47.5059C323.011 48.6224 324.709 49.1807 326.782 49.1807ZM350.981 35.2012C350.981 29.5273 352.326 24.9701 355.015 21.5293C357.703 18.0658 361.224 16.334 365.576 16.334C369.906 16.334 373.335 17.8151 375.864 20.7773V1.5H382.188V54H376.377L376.069 50.0352C373.54 53.1341 370.02 54.6836 365.508 54.6836C361.224 54.6836 357.726 52.929 355.015 49.4199C352.326 45.9108 350.981 41.3307 350.981 35.6797V35.2012ZM357.305 35.9189C357.305 40.1117 358.171 43.3929 359.902 45.7627C361.634 48.1325 364.027 49.3174 367.08 49.3174C371.09 49.3174 374.019 47.5173 375.864 43.917V26.9297C373.973 23.4434 371.068 21.7002 367.148 21.7002C364.049 21.7002 361.634 22.8965 359.902 25.2891C358.171 27.6816 357.305 31.2249 357.305 35.9189ZM395.142 54V21.9053H389.297V17.0176H395.142V13.2236C395.142 9.25879 396.201 6.19401 398.32 4.0293C400.439 1.86458 403.436 0.782227 407.31 0.782227C408.768 0.782227 410.215 0.975911 411.65 1.36328L411.309 6.49023C410.238 6.28516 409.098 6.18262 407.891 6.18262C405.84 6.18262 404.256 6.78646 403.14 7.99414C402.023 9.17904 401.465 10.888 401.465 13.1211V17.0176H409.36V21.9053H401.465V54H395.142ZM439.199 50.3428C436.738 53.2367 433.127 54.6836 428.364 54.6836C424.422 54.6836 421.414 53.5443 419.341 51.2656C417.29 48.9642 416.253 45.569 416.23 41.0801V17.0176H422.554V40.9092C422.554 46.5146 424.832 49.3174 429.39 49.3174C434.22 49.3174 437.433 47.5173 439.028 43.917V17.0176H445.352V54H439.336L439.199 50.3428ZM461.86 54H455.537V1.5H461.86V54Z" fill="white"/>
</svg>
